<svg xmlns="http://www.w3.org/2000/svg" xmlns:xlink="http://www.w3.org/1999/xlink" width="26" height="26" viewBox="0 0 26 26"><defs><path id="ratua" d="M840 858a12 12 0 1 1 24 0 12 12 0 1 1-24 0z"/><path id="ratub" d="M847.08 858.03l3.01 3c.19.2.48.2.67 0a.47.47 0 0 0 0-.66l-2.2-2.2h8.02a.47.47 0 0 0 0-.95h-8.03l2.2-2.2a.47.47 0 0 0-.66-.67l-3 3a.47.47 0 0 0 0 .68z"/></defs><g><g transform="translate(-839 -845)"><use fill="#71b049" xlink:href="#ratua"/></g><g transform="translate(-839 -845)"><use fill="#fff" xlink:href="#ratub"/></g></g></svg>