<svg xmlns="http://www.w3.org/2000/svg" xmlns:xlink="http://www.w3.org/1999/xlink" width="24" height="23" viewBox="0 0 24 23"><defs><path id="lfw1a" d="M350.14 8603.71c.42.43.65.93.65 1.45a2.1 2.1 0 0 1-.64 1.46c-.18.2-.37.37-.55.55-.27.25-.52.5-.74.76l-.02.02a3.19 3.19 0 0 1-2.44 1.05h-.26c-1.45-.1-2.75-.65-3.72-1.1a19.89 19.89 0 0 1-6.63-5.19 18.17 18.17 0 0 1-3.23-5.38 7.39 7.39 0 0 1-.54-3.13c.06-.77.37-1.43.91-1.97l1.44-1.44.01-.01c.42-.4.92-.62 1.44-.62a2 2 0 0 1 1.41.62 20.27 20.27 0 0 1 1.2 1.18l1.15 1.16c.88.88.88 2.03 0 2.92l-.36.36c-.31.31-.63.64-.98.96.26.57.61 1.13 1.14 1.8a14.5 14.5 0 0 0 3.48 3.16c.12.08.27.15.42.23l.32.16 1.34-1.33c.43-.42.93-.65 1.45-.65.52 0 1.01.23 1.42.66zm-.82.8l-2.33-2.32v-.01c-.14-.15-.35-.31-.61-.31-.27 0-.5.17-.64.32l-1.45 1.44a.9.9 0 0 1-.64.3.91.91 0 0 1-.42-.11c-.01-.01-.03-.03-.05-.03-.12-.08-.26-.15-.42-.23-.17-.08-.34-.17-.52-.28a15.5 15.5 0 0 1-3.75-3.41 9.25 9.25 0 0 1-1.38-2.27c-.08-.24-.15-.6.22-.96l.02-.02c.37-.33.7-.66 1.06-1.03l.36-.36c.45-.45.45-.86 0-1.3l-1.15-1.16-.4-.41-.76-.76h-.02a.9.9 0 0 0-.61-.3c-.22 0-.44.1-.65.3l-1.44 1.44c-.35.35-.54.75-.58 1.25-.07.77.08 1.6.47 2.64.64 1.72 1.6 3.33 3.05 5.06a18.78 18.78 0 0 0 6.24 4.88c.87.42 2.04.91 3.3.99h.19c.66 0 1.16-.21 1.59-.67.26-.3.54-.58.81-.84l.52-.52c.43-.44.43-.89 0-1.32zm-6.97-11.41c.05-.31.35-.52.66-.47a6.52 6.52 0 0 1 5.36 5.36c.05.3-.16.6-.47.66h-.1a.57.57 0 0 1-.56-.47 5.38 5.38 0 0 0-4.43-4.42.56.56 0 0 1-.46-.66zm9.18 5.37l-.1.01a.57.57 0 0 1-.56-.47 9.6 9.6 0 0 0-7.89-7.88.57.57 0 1 1 .19-1.12c2.2.37 4.2 1.41 5.8 3a10.7 10.7 0 0 1 3.02 5.81c.06.31-.16.6-.46.65z"/></defs><g><g transform="translate(-330 -8587)"><use fill="#8943ca" xlink:href="#lfw1a"/></g></g></svg>