<svg xmlns="http://www.w3.org/2000/svg" xmlns:xlink="http://www.w3.org/1999/xlink" width="26" height="26" viewBox="0 0 26 26"><defs><path id="iifda" d="M1012.5 6543a11.5 11.5 0 1 1 0 23 11.5 11.5 0 0 1 0-23z"/><path id="iifdb" d="M1009.1 6555.3a.32.32 0 0 1-.1-.21c0-.06.03-.15.1-.21l.42-.42a.3.3 0 0 1 .43 0l.03.03 1.7 1.77c.06.06.15.06.21 0l4.13-4.17h.03a.3.3 0 0 1 .43 0l.43.42c.12.12.12.3 0 .42l-4.93 4.98a.28.28 0 0 1-.21.09.28.28 0 0 1-.22-.1l-2.4-2.51z"/></defs><g><g transform="translate(-999 -6541)"><use fill="#74b34b" xlink:href="#iifda"/></g><g transform="translate(-999 -6541)"><use fill="#fff" xlink:href="#iifdb"/></g></g></svg>