<svg xmlns="http://www.w3.org/2000/svg" xmlns:xlink="http://www.w3.org/1999/xlink" width="30" height="30" viewBox="0 0 30 30"><defs><path id="57qxa" d="M1129.5 10937a13.5 13.5 0 1 1 0 27 13.5 13.5 0 0 1 0-27z"/><path id="57qxb" d="M1125.2 10950.15a.7.7 0 0 1-.2-.46.7.7 0 0 1 .2-.45l.91-.91a.63.63 0 0 1 .92 0l.06.06 3.6 3.84c.13.13.33.13.46 0l8.76-9.04h.06a.63.63 0 0 1 .92 0l.91.91c.27.26.27.65 0 .91l-10.46 10.8a.6.6 0 0 1-.46.19.6.6 0 0 1-.45-.2l-5.1-5.46z"/></defs><g><g transform="translate(-1114 -10935)"><use fill="#74b34b" xlink:href="#57qxa"/></g><g transform="translate(-1114 -10935)"><use fill="#fff" xlink:href="#57qxb"/></g></g></svg>