<svg xmlns="http://www.w3.org/2000/svg" xmlns:xlink="http://www.w3.org/1999/xlink" width="32" height="31" viewBox="0 0 32 31"><defs><path id="xymya" d="M95.5 15139a14.5 14.5 0 1 1 0 29 14.5 14.5 0 0 1 0-29z"/><path id="xymyb" d="M89.15 15154.5a.54.54 0 0 1-.15-.35c0-.1.05-.25.15-.35l.7-.7c.2-.2.5-.2.7 0l.05.05 2.75 2.95c.1.1.25.1.35 0l6.7-6.95h.05c.2-.2.5-.2.7 0l.7.7c.2.2.2.5 0 .7l-8 8.3c-.1.1-.2.15-.35.15a.45.45 0 0 1-.35-.15l-3.9-4.2z"/></defs><g><g transform="translate(-79 -15138)"><use fill="#8b4bc6" xlink:href="#xymya"/></g><g transform="translate(-79 -15138)"><use fill="#fff" xlink:href="#xymyb"/></g></g></svg>