<svg xmlns="http://www.w3.org/2000/svg" xmlns:xlink="http://www.w3.org/1999/xlink" width="30" height="30" viewBox="0 0 30 30"><defs><path id="gq8ta" d="M1482.5 11342a13.5 13.5 0 1 1 0 27 13.5 13.5 0 0 1 0-27z"/><path id="gq8tb" d="M1476.21 11349.37c.42-.42 1.3-.22 1.96.46l9.66 9.8c.66.68.86 1.57.45 2-.42.42-1.3.22-1.96-.46l-9.66-9.8c-.66-.68-.87-1.58-.45-2z"/><path id="gq8tc" d="M1476.42 11361.78c-.43-.43-.22-1.35.46-2.04l9.9-10.05c.68-.7 1.58-.9 2-.47.43.43.22 1.35-.46 2.04l-9.9 10.05c-.68.7-1.58.9-2 .47z"/></defs><g><g transform="translate(-1467 -11340)"><use fill="#c1c1c1" xlink:href="#gq8ta"/></g><g transform="translate(-1467 -11340)"><use fill="#fff" xlink:href="#gq8tb"/></g><g transform="translate(-1467 -11340)"><use fill="#fff" xlink:href="#gq8tc"/></g></g></svg>