<?xml version="1.0" encoding="UTF-8" standalone="no"?>
<svg
   xmlns:dc="http://purl.org/dc/elements/1.1/"
   xmlns:cc="http://creativecommons.org/ns#"
   xmlns:rdf="http://www.w3.org/1999/02/22-rdf-syntax-ns#"
   xmlns:svg="http://www.w3.org/2000/svg"
   xmlns="http://www.w3.org/2000/svg"
   xmlns:sodipodi="http://sodipodi.sourceforge.net/DTD/sodipodi-0.dtd"
   xmlns:inkscape="http://www.inkscape.org/namespaces/inkscape"
   width="27"
   height="16"
   viewBox="0 0 27 16"
   version="1.1"
   id="svg11"
   sodipodi:docname="group.svg"
   inkscape:version="0.92.3 (2405546, 2018-03-11)">
  <metadata
     id="metadata15">
    <rdf:RDF>
      <cc:Work
         rdf:about="">
        <dc:format>image/svg+xml</dc:format>
        <dc:type
           rdf:resource="http://purl.org/dc/dcmitype/StillImage" />
      </cc:Work>
    </rdf:RDF>
  </metadata>
  <sodipodi:namedview
     pagecolor="#ffffff"
     bordercolor="#666666"
     borderopacity="1"
     objecttolerance="10"
     gridtolerance="10"
     guidetolerance="10"
     inkscape:pageopacity="0"
     inkscape:pageshadow="2"
     inkscape:window-width="1920"
     inkscape:window-height="1025"
     id="namedview13"
     showgrid="false"
     inkscape:zoom="41.7193"
     inkscape:cx="13.963234"
     inkscape:cy="6.6224864"
     inkscape:window-x="0"
     inkscape:window-y="23"
     inkscape:window-maximized="1"
     inkscape:current-layer="svg11" />
  <defs
     id="defs3">
    <path
       id="pgrma"
       d="M287 5498.01v2.1a.4.4 0 0 1-.4.4h-6.33v1.1a.4.4 0 0 1-.4.39h-9.74a.4.4 0 0 1-.4-.4v-1.1h-6.33a.4.4 0 0 1-.4-.4v-2.09c0-2.05 1.67-3.7 3.72-3.71h3.08a3.7 3.7 0 0 1 3.02 1.55c.21-.03.43-.05.64-.05h3.09c.21 0 .43.02.64.05a3.74 3.74 0 0 1 3.02-1.55h3.08a3.72 3.72 0 0 1 3.71 3.71zm-15-1.9a2.96 2.96 0 0 0-2.2-1.01h-3.08a2.93 2.93 0 0 0-2.92 2.91v1.7h5.97v-.56a3.73 3.73 0 0 1 2.23-3.05zm7.46 3.21c-.02-.06-.02-.12-.02-.18a2.93 2.93 0 0 0-2.89-2.54h-3.09l-.08.04c-1.26 0-2.38.82-2.77 2.01l-.02.07-.03.1-.02.07v2.31h8.92v-1.88zm6.75-1.3c0-1.62-1.3-2.92-2.92-2.92h-3.09c-.5 0-.99.13-1.42.37-.23.19-.43.4-.6.65.94.4 1.67 1.17 2.03 2.12l.04.1v.14l.01.07v1.16h5.95zm-15.14-7.2a2.81 2.81 0 1 1-5.62 0 2.81 2.81 0 0 1 5.62 0zm-.8 0a2.01 2.01 0 1 0 0 0zm14.3 0a2.81 2.81 0 1 1-5.63-.01 2.81 2.81 0 0 1 5.62 0zm-1.4-1.43a2.01 2.01 0 1 0-2.84 2.86 2.01 2.01 0 0 0 2.84-2.86zm-6.17 4.9a2.81 2.81 0 1 1-3.98-3.97 2.81 2.81 0 0 1 3.98 3.97zm.02-1.97a2 2 0 0 0-2.01-2.01 2.01 2.01 0 1 0 2 2z" />
  </defs>
  <g
     id="g879">
    <path
       style="color:#000000;font-style:normal;font-variant:normal;font-weight:normal;font-stretch:normal;font-size:medium;line-height:normal;font-family:sans-serif;font-variant-ligatures:normal;font-variant-position:normal;font-variant-caps:normal;font-variant-numeric:normal;font-variant-alternates:normal;font-feature-settings:normal;text-indent:0;text-align:start;text-decoration:none;text-decoration-line:none;text-decoration-style:solid;text-decoration-color:#000000;letter-spacing:normal;word-spacing:normal;text-transform:none;writing-mode:lr-tb;direction:ltr;text-orientation:mixed;dominant-baseline:auto;baseline-shift:baseline;text-anchor:start;white-space:normal;shape-padding:0;clip-rule:nonzero;display:inline;overflow:visible;visibility:visible;opacity:1;isolation:auto;mix-blend-mode:normal;color-interpolation:sRGB;color-interpolation-filters:linearRGB;solid-color:#000000;solid-opacity:1;vector-effect:none;fill:#000000;fill-opacity:1;fill-rule:nonzero;stroke:none;stroke-width:0.70776945;stroke-linecap:butt;stroke-linejoin:round;stroke-miterlimit:4;stroke-dasharray:none;stroke-dashoffset:0;stroke-opacity:1;color-rendering:auto;image-rendering:auto;shape-rendering:auto;text-rendering:auto;enable-background:accumulate"
       d="M 6.9394531,0.85742188 C 5.3829767,0.85742187 4.109375,2.1101313 4.109375,3.6523438 c 0,1.5422124 1.2736017,2.7949218 2.8300781,2.7949218 1.5564764,0 2.8320313,-1.2527094 2.8320313,-2.7949218 0,-1.5422125 -1.2755549,-2.79492193 -2.8320313,-2.79492192 z m 13.3984379,0.0234375 c -1.556477,2.4e-7 -2.830079,1.25270962 -2.830079,2.79492182 0,1.5422124 1.273602,2.7949217 2.830079,2.7949219 1.556476,4e-7 2.832031,-1.2527091 2.832031,-2.7949219 0,-1.5422127 -1.275555,-2.7949222 -2.832031,-2.79492182 z M 6.9394531,1.5644531 c 1.1795217,0 2.1230469,0.9338192 2.1230469,2.0878907 0,1.1540714 -0.9435252,2.0859374 -2.1230469,2.0859374 -1.1795217,0 -2.1230469,-0.931866 -2.1230469,-2.0859374 0,-1.1540715 0.9435252,-2.0878907 2.1230469,-2.0878907 z m 13.3984379,0.023437 c 1.179522,-3e-7 2.123047,0.933819 2.123047,2.0878906 0,1.1540717 -0.943525,2.087891 -2.123047,2.0878907 -1.179522,-2e-7 -2.123047,-0.9338193 -2.123047,-2.0878907 0,-1.1540712 0.943525,-2.0878904 2.123047,-2.0878906 z m -6.685547,0.7753906 c -1.556476,3e-7 -2.830078,1.2527096 -2.830078,2.7949219 0,1.5422123 1.273602,2.7949217 2.830078,2.7949219 1.556476,-2e-7 2.832031,-1.2527096 2.832031,-2.7949219 0,-1.5422123 -1.275555,-2.7949216 -2.832031,-2.7949219 z m 0,0.7070313 c 1.179521,2e-7 2.123047,0.9338194 2.123047,2.0878906 0,1.1540713 -0.943526,2.0859373 -2.123047,2.0859375 -1.179522,-2e-7 -2.123047,-0.9318662 -2.123047,-2.0859375 0,-1.1540712 0.943525,-2.0878904 2.123047,-2.0878906 z M 4.5625,7.1210938 C 4.53152,7.1209656 4.5006572,7.1249056 4.470703,7.1328128 3.6359258,7.3549765 2.9469764,7.9016615 2.453125,8.4921875 1.9592736,9.0827135 1.6419421,9.6930615 1.625,10.234375 c -4.52e-5,0.0033 -4.52e-5,0.0065 0,0.0098 v 2.746093 c 2.227e-4,0.195149 0.1583666,0.353293 0.3535156,0.353516 h 6.359375 v 1.152344 c 2.233e-4,0.195149 0.158367,0.353292 0.3535156,0.353515 h 9.8535158 c 0.195149,-2.23e-4 0.353293,-0.158366 0.353516,-0.353515 v -1.126953 h 6.332031 c 0.196676,8.63e-4 0.356332,-0.158793 0.355469,-0.355469 V 10.267578 C 25.585994,9.7185157 25.24693,9.1722247 24.767578,8.6210938 24.288226,8.0699628 23.642405,7.540792 22.917969,7.2011719 c -0.04708,-0.021973 -0.09843,-0.033309 -0.150391,-0.033203 -3.183541,-0.0051 -0.573823,-0.023438 -4.80664,-0.023438 -0.03098,-1.285e-4 -0.06184,0.00381 -0.0918,0.011719 -0.834778,0.2221635 -1.523727,0.770802 -2.017579,1.3613281 -0.03716,0.044436 -0.02739,0.086254 -0.0625,0.1308594 -2.314101,-0.0061 -0.800558,-0.022679 -4.40625,-0.023437 -0.0079,-0.00917 -0.0057,-0.018176 -0.01367,-0.027344 C 10.889789,8.0465253 10.243967,7.5173545 9.5195312,7.1777344 9.4724461,7.1557613 9.4211003,7.1444251 9.3691406,7.1445312 6.1855999,7.139434 8.7953169,7.1210938 4.5625,7.1210938 Z M 4.6347656,7.828125 C 8.5120404,7.828664 6.43729,7.846074 9.2617188,7.8515625 9.8069858,8.116646 10.308607,8.5339068 10.705078,8.9609375 10.123082,9.2360786 9.5427548,9.5475586 9.1660156,9.9980469 8.6721642,10.588573 8.3548328,11.196968 8.3378906,11.738281 c -6.47e-5,0.0039 -6.47e-5,0.0078 0,0.01172 V 12.63672 H 2.3320312 V 10.25586 C 2.3390591,10.031314 2.5740669,9.4519068 2.9960938,8.9472656 3.4136751,8.4479401 3.9983613,8.0036685 4.6347656,7.828125 Z M 18.035156,7.851562 c 3.872075,5.534e-4 1.798206,0.019912 4.626953,0.025391 0.593981,0.289283 1.165847,0.7417079 1.572266,1.2089844 0.418107,0.4807155 0.642598,0.9927126 0.642578,1.1816406 v 2.392578 H 18.898438 V 11.75 c 5.6e-5,-0.549063 -0.337055,-1.095353 -0.816407,-1.646484 C 17.673673,9.6340084 17.101604,9.2284738 16.505859,8.8945312 16.91549,8.4363163 17.441972,8.0151792 18.035156,7.851562 Z m 0.15625,5.517612 v 0.773437 H 9.0449219 v -0.798861 -0.707032 -0.875 C 9.0519519,11.537172 9.2869576,10.957765 9.7089844,10.453124 10.058849,10.034771 10.565913,9.7323474 11.082031,9.5156243 L 11.736328,9.335937 c 2.346644,0.00257 2.258374,0.011279 3.716797,0.017578 l 0.681641,0.1269533 c 0.527795,0.2899331 1.048499,0.6656347 1.414062,1.0859377 0.418107,0.480716 0.642598,0.994666 0.642578,1.183594 v 0.910156"
       id="path831"
       inkscape:connector-curvature="0"
       sodipodi:nodetypes="ssssssssssssssssssssssssssssssccscccccccccccccsccccccccccccccscccccscccsccccccccccccccccccccc" />
  </g>
</svg>
