<svg xmlns="http://www.w3.org/2000/svg" xmlns:xlink="http://www.w3.org/1999/xlink" width="28" height="27" viewBox="0 0 28 27"><defs><path id="rw7da" d="M1671 13133.62v10.76a6.63 6.63 0 0 1-6.62 6.62h-10.76a6.63 6.63 0 0 1-6.62-6.62v-10.76a6.63 6.63 0 0 1 6.62-6.62h10.76a6.63 6.63 0 0 1 6.62 6.62zm-2.13 10.76v-10.76a4.5 4.5 0 0 0-4.5-4.5h-10.75a4.5 4.5 0 0 0-4.5 4.5v10.76a4.5 4.5 0 0 0 4.5 4.49h10.76a4.5 4.5 0 0 0 4.5-4.5zm-3.69-5.38a6.2 6.2 0 1 1-12.38-.01 6.2 6.2 0 0 1 12.38.01zm-2.13 0a4.06 4.06 0 1 0-8.11 0 4.06 4.06 0 0 0 8.11 0zm3.5-7.53a1.57 1.57 0 0 1 0 2.2c-.3.3-.7.46-1.1.46a1.57 1.57 0 0 1-1.57-1.56 1.57 1.57 0 0 1 1.56-1.56c.42 0 .82.17 1.1.46z"/></defs><g><g transform="translate(-1645 -13125)"><use fill="#fff" xlink:href="#rw7da"/></g></g></svg>