<svg xmlns="http://www.w3.org/2000/svg" xmlns:xlink="http://www.w3.org/1999/xlink" width="27" height="17" viewBox="0 0 27 17"><defs><path id="dst4a" d="M1378 8607h18a1 1 0 0 1 0 2h-18a1 1 0 1 1 0-2z"/><path id="dst4b" d="M1378 8611h18a1 1 0 1 1 0 2h-18a1 1 0 0 1 0-2z"/><path id="dst4c" d="M1374 8607a1 1 0 1 1 0 2 1 1 0 0 1 0-2z"/><path id="dst4d" d="M1374 8611a1 1 0 1 1 0 2 1 1 0 0 1 0-2z"/><path id="dst4e" d="M1378 8615h18a1 1 0 1 1 0 2h-18a1 1 0 1 1 0-2z"/><path id="dst4f" d="M1378 8619h18a1 1 0 1 1 0 2h-18a1 1 0 1 1 0-2z"/><path id="dst4g" d="M1374 8615a1 1 0 1 1 0 2 1 1 0 0 1 0-2z"/><path id="dst4h" d="M1374 8619a1 1 0 1 1 0 2 1 1 0 0 1 0-2z"/></defs><g><g transform="translate(-1371 -8605)"><use fill="#8943ca" xlink:href="#dst4a"/></g><g transform="translate(-1371 -8605)"><use fill="#8943ca" xlink:href="#dst4b"/></g><g transform="translate(-1371 -8605)"><use fill="#8943ca" xlink:href="#dst4c"/></g><g transform="translate(-1371 -8605)"><use fill="#8943ca" xlink:href="#dst4d"/></g><g transform="translate(-1371 -8605)"><use fill="#8943ca" xlink:href="#dst4e"/></g><g transform="translate(-1371 -8605)"><use fill="#8943ca" xlink:href="#dst4f"/></g><g transform="translate(-1371 -8605)"><use fill="#8943ca" xlink:href="#dst4g"/></g><g transform="translate(-1371 -8605)"><use fill="#8943ca" xlink:href="#dst4h"/></g></g></svg>