<svg xmlns="http://www.w3.org/2000/svg" xmlns:xlink="http://www.w3.org/1999/xlink" width="21" height="17" viewBox="0 0 21 17"><defs><path id="sxwla" d="M259 13094.62v10.76c0 .9-.71 1.62-1.58 1.62h-14.84a1.6 1.6 0 0 1-1.58-1.62v-10.76c0-.9.71-1.62 1.58-1.62h14.84c.87 0 1.58.73 1.58 1.62zm-16.2-.54l7.23 7.31 7.17-7.31zm4.33 5.9l-5.08-5.15v10.33zm10.07 5.94l-5.06-5.16-1.73 1.77a.52.52 0 0 1-.75 0l-1.78-1.8-5.08 5.2zm.75-11.08l-5.06 5.16 5.06 5.16z"/></defs><g><g opacity=".2" transform="translate(-239 -13091)"><use xlink:href="#sxwla"/></g></g></svg>