<svg xmlns="http://www.w3.org/2000/svg" xmlns:xlink="http://www.w3.org/1999/xlink" width="21" height="27" viewBox="0 0 21 27"><defs><path id="s7dia" d="M360.5 8774a.7.7 0 0 1-.5-.21c-.37-.39-9-9.44-9-14.44a9.44 9.44 0 0 1 9.5-9.35c5.24 0 9.5 4.2 9.5 9.35 0 5-8.63 14.05-9 14.44a.7.7 0 0 1-.5.21zm0-22.63a8.05 8.05 0 0 0-8.1 7.98c0 3.46 5.44 10.07 8.1 12.95 2.66-2.88 8.1-9.5 8.1-12.95 0-4.4-3.63-7.98-8.1-7.98zm0 10.9a3.99 3.99 0 0 1-4.02-3.95 4 4 0 0 1 4.02-3.95 4 4 0 0 1 4.02 3.95c0 2.18-1.8 3.95-4.02 3.95zm0-6.53a2.6 2.6 0 0 0-2.62 2.58 2.6 2.6 0 0 0 2.62 2.58 2.6 2.6 0 0 0 2.62-2.58 2.6 2.6 0 0 0-2.62-2.58z"/></defs><g><g transform="translate(-350 -8748)"><use fill="#8943ca" xlink:href="#s7dia"/></g></g></svg>