<svg xmlns="http://www.w3.org/2000/svg" xmlns:xlink="http://www.w3.org/1999/xlink" width="19" height="29" viewBox="0 0 19 29"><defs><path id="42o8a" d="M1598.27 13143.6a9.71 9.71 0 0 1-5.18-1.84c-.18-.15-.38-.29-.54-.45-.66-.63-.72-1.35-.2-2.09.44-.64 1.18-.8 1.95-.44a3 3 0 0 1 .43.25 8.49 8.49 0 0 0 9.41.09c.28-.21.58-.39.92-.48.67-.17 1.29.08 1.65.66.4.67.4 1.32-.1 1.84-.78.8-1.7 1.37-2.74 1.77-.98.38-2.05.57-3.1.7l.33.36 4.32 4.33c.48.5.59 1.11.32 1.69a1.7 1.7 0 0 1-1.6 1c-.41-.04-.73-.24-1.01-.52-1.09-1.1-2.2-2.17-3.26-3.28-.3-.33-.46-.27-.73.01-1.1 1.13-2.2 2.24-3.32 3.34-.5.5-1.1.58-1.68.3a1.7 1.7 0 0 1-.98-1.57c.02-.42.23-.75.53-1.05l4.26-4.27.32-.34zm1.18-4.95a6.33 6.33 0 0 1 .08-12.65 6.33 6.33 0 0 1-.08 12.65zm3.14-6.33a3.09 3.09 0 1 0-6.19.04 3.08 3.08 0 0 0 3.12 3.06 3.07 3.07 0 0 0 3.07-3.1z"/></defs><g><g transform="translate(-1590 -13124)"><use fill="#fff" xlink:href="#42o8a"/></g></g></svg>