<?xml version="1.0" encoding="UTF-8" standalone="no"?>
<svg
   xmlns:dc="http://purl.org/dc/elements/1.1/"
   xmlns:cc="http://creativecommons.org/ns#"
   xmlns:rdf="http://www.w3.org/1999/02/22-rdf-syntax-ns#"
   xmlns:svg="http://www.w3.org/2000/svg"
   xmlns="http://www.w3.org/2000/svg"
   xmlns:xlink="http://www.w3.org/1999/xlink"
   xmlns:sodipodi="http://sodipodi.sourceforge.net/DTD/sodipodi-0.dtd"
   xmlns:inkscape="http://www.inkscape.org/namespaces/inkscape"
   width="18"
   height="18"
   viewBox="0 0 18 18"
   version="1.1"
   id="svg11"
   sodipodi:docname="phone.svg"
   inkscape:version="0.92.3 (2405546, 2018-03-11)">
  <metadata
     id="metadata15">
    <rdf:RDF>
      <cc:Work
         rdf:about="">
        <dc:format>image/svg+xml</dc:format>
        <dc:type
           rdf:resource="http://purl.org/dc/dcmitype/StillImage" />
      </cc:Work>
    </rdf:RDF>
  </metadata>
  <sodipodi:namedview
     pagecolor="#ffffff"
     bordercolor="#666666"
     borderopacity="1"
     objecttolerance="10"
     gridtolerance="10"
     guidetolerance="10"
     inkscape:pageopacity="0"
     inkscape:pageshadow="2"
     inkscape:window-width="1920"
     inkscape:window-height="1025"
     id="namedview13"
     showgrid="false"
     inkscape:zoom="52.444444"
     inkscape:cx="6.3812059"
     inkscape:cy="9.1051974"
     inkscape:window-x="0"
     inkscape:window-y="23"
     inkscape:window-maximized="1"
     inkscape:current-layer="svg11" />
  <defs
     id="defs3">
    <linearGradient
       inkscape:collect="always"
       id="linearGradient829">
      <stop
         style="stop-color:#000000;stop-opacity:1;"
         offset="0"
         id="stop825" />
      <stop
         style="stop-color:#000000;stop-opacity:0;"
         offset="1"
         id="stop827" />
    </linearGradient>
    <path
       id="ovsda"
       d="M976.79 9940.35c-.3-.32-.68-.5-1.07-.5-.38 0-.76.18-1.07.5l-1 .98-.24-.13c-.12-.05-.22-.1-.31-.16a10.8 10.8 0 0 1-2.6-2.35c-.4-.5-.66-.92-.85-1.34.26-.24.5-.48.73-.72l.27-.26c.66-.66.66-1.51 0-2.17l-.86-.86-.3-.3c-.19-.19-.38-.39-.59-.58a1.5 1.5 0 0 0-1.05-.46c-.39 0-.76.16-1.08.46l-1.07 1.08c-.4.4-.64.9-.69 1.46-.07.92.2 1.77.4 2.33a13.5 13.5 0 0 0 2.42 4 14.82 14.82 0 0 0 4.93 3.85 7.73 7.73 0 0 0 2.98.82c.72 0 1.34-.26 1.81-.78l.02-.01c.16-.2.35-.38.55-.57l.4-.4c.32-.33.48-.7.48-1.1 0-.38-.16-.75-.48-1.07z" />
    <linearGradient
       inkscape:collect="always"
       xlink:href="#linearGradient829"
       id="linearGradient831"
       x1="964.9987"
       y1="9939"
       x2="979"
       y2="9939"
       gradientUnits="userSpaceOnUse" />
  </defs>
  <path
     style="color:#000000;font-style:normal;font-variant:normal;font-weight:normal;font-stretch:normal;font-size:medium;line-height:normal;font-family:sans-serif;font-variant-ligatures:normal;font-variant-position:normal;font-variant-caps:normal;font-variant-numeric:normal;font-variant-alternates:normal;font-feature-settings:normal;text-indent:0;text-align:start;text-decoration:none;text-decoration-line:none;text-decoration-style:solid;text-decoration-color:#000000;letter-spacing:normal;word-spacing:normal;text-transform:none;writing-mode:lr-tb;direction:ltr;text-orientation:mixed;dominant-baseline:auto;baseline-shift:baseline;text-anchor:start;white-space:normal;shape-padding:0;clip-rule:nonzero;display:inline;overflow:visible;visibility:visible;opacity:1;isolation:auto;mix-blend-mode:normal;color-interpolation:sRGB;color-interpolation-filters:linearRGB;solid-color:#000000;solid-opacity:1;vector-effect:none;fill:#6d0000;fill-opacity:1;fill-rule:nonzero;stroke:none;stroke-width:1;stroke-linecap:butt;stroke-linejoin:round;stroke-miterlimit:4;stroke-dasharray:none;stroke-dashoffset:0;stroke-opacity:1;color-rendering:auto;image-rendering:auto;shape-rendering:auto;text-rendering:auto;enable-background:accumulate"
     d="M 5.3867188,1.5234375 C 4.8552937,1.3654578 4.3232932,1.494482 3.8828125,1.7304688 3.4423318,1.9664555 3.0627784,2.3072934 2.7363281,2.6660156 2.4098778,3.0247379 2.1396184,3.4031911 1.9394531,3.7207031 1.8393705,3.8794591 1.7565689,4.0211628 1.6933594,4.1445312 1.6301498,4.2678997 1.5872235,4.3405724 1.5527344,4.4980469 a 0.50005,0.50005 0 0 0 -0.00781,0.041016 C 1.4656668,5.1417581 1.4700387,6.7755792 2.546875,8.9023438 3.6479033,11.076888 6.3806045,14.111208 8.8183594,15.302734 a 0.50005,0.50005 0 0 0 0.00781,0.0039 c 1.9074691,0.889188 2.9181541,1.231521 4.5722661,1.134765 a 0.50005,0.50005 0 0 0 0.140624,-0.0293 c 0.903154,-0.326134 1.68327,-0.978456 2.236329,-1.646484 0.276529,-0.334014 0.495353,-0.672857 0.636718,-1.001953 0.137682,-0.32052 0.229666,-0.651916 0.07813,-1.021484 C 16.409537,12.481699 16.276863,12.28826 16.095703,12.0625 15.901029,11.819898 15.655291,11.556752 15.380859,11.277344 14.831995,10.718527 14.163387,10.10125 13.574219,9.5507812 A 0.50005,0.50005 0 0 0 13.326172,9.4238281 C 12.467914,9.2594557 11.822761,9.494661 11.410156,9.8613281 11.096169,10.140358 10.866972,10.413856 10.601562,10.675781 8.9960315,9.6344515 8.381156,9.0468696 7.3046875,7.3945312 7.6361092,7.0666324 7.9792271,6.7683454 8.2519531,6.421875 8.605412,5.9728419 8.784599,5.3093014 8.5253906,4.5957031 A 0.50005,0.50005 0 0 0 8.4609375,4.4726562 C 7.9996265,3.837169 7.4308202,3.2008987 6.8925781,2.6777344 6.3543361,2.15457 5.8863152,1.7548285 5.4589844,1.5507812 A 0.50005,0.50005 0 0 0 5.3867188,1.5234375 Z M 5.0683594,2.4863281 C 5.2519375,2.5833235 5.7131381,2.9278171 6.1953125,3.3964844 6.6703514,3.8582161 7.1724309,4.42983 7.5800781,4.9785156 7.7210096,5.392886 7.681288,5.5297174 7.4648438,5.8046875 7.2376491,6.0933149 6.7700386,6.4606919 6.2753906,7.0175781 a 0.50005,0.50005 0 0 0 -0.046875,0.6015625 c 1.4123011,2.2143001 2.0146801,2.7660254 4.1523434,4.1328124 a 0.50005,0.50005 0 0 0 0.570313,-0.02344 c 0.566901,-0.429692 0.867188,-0.891768 1.123047,-1.119141 0.232885,-0.206957 0.45074,-0.263325 0.96875,-0.185547 0.551487,0.514725 1.146796,1.067812 1.625,1.554688 0.261134,0.265869 0.486999,0.512189 0.646484,0.710937 0.159485,0.198749 0.244162,0.37813 0.238281,0.355469 a 0.50005,0.50005 0 0 0 0.02734,0.07617 c -0.03497,-0.07854 0.0027,0.04159 -0.08594,0.248047 -0.08869,0.206461 -0.260101,0.482197 -0.488282,0.757812 -0.443937,0.536223 -1.112044,1.059324 -1.757812,1.308594 -1.43205,0.06967 -2.16216,-0.179337 -3.9902345,-1.03125 l -0.00195,-0.002 C 7.1812733,13.387238 4.3964771,10.339353 3.4394531,8.4492188 2.4683485,6.5312754 2.4936324,5.0549127 2.5371094,4.6972656 c -0.00475,0.027044 0.00673,-0.017356 0.046875,-0.095703 C 2.6300492,4.5116561 2.6989453,4.3906584 2.7851562,4.2539062 2.9575782,3.980402 3.2000481,3.6436935 3.4765625,3.3398438 3.7530769,3.035994 4.0662069,2.7662996 4.3554688,2.6113281 4.6318553,2.4632545 4.8554486,2.4324814 5.0683594,2.4863281 Z"
     id="rect852"
     inkscape:connector-curvature="0" />
</svg>
