<svg xmlns="http://www.w3.org/2000/svg" xmlns:xlink="http://www.w3.org/1999/xlink" width="28" height="28" viewBox="0 0 28 28"><defs><path id="1g24a" d="M1396 8771.02v2.25c0 .4-.33.73-.73.73h-23.54a.73.73 0 0 1-.73-.73v-2.25a4.34 4.34 0 0 1 2.31-3.85 2.92 2.92 0 0 1 2.13-4.94 2.93 2.93 0 0 1 2.13 4.95c.7.39 1.3.97 1.7 1.68a5.16 5.16 0 0 1 1.85-1.65 3.65 3.65 0 1 1 4.76 0c.74.4 1.38.96 1.85 1.65.4-.7 1-1.3 1.7-1.68a2.92 2.92 0 0 1 2.13-4.95 2.93 2.93 0 0 1 2.13 4.94 4.34 4.34 0 0 1 2.31 3.85zm-22.02-5.86a1.47 1.47 0 1 0 2.93 0 1.47 1.47 0 0 0-2.93 0zm4.4 5.86a2.96 2.96 0 0 0-5.9 0v1.51h5.9zm2.92-6.6a2.2 2.2 0 1 0 4.4 0 2.2 2.2 0 0 0-4.4 0zm5.86 7.33a3.67 3.67 0 0 0-7.32 0v.78h7.32zm2.93-6.59a1.47 1.47 0 1 0 2.94 0 1.47 1.47 0 0 0-2.94 0zm4.45 5.86a2.96 2.96 0 0 0-5.91 0v1.51h5.9zm1.46-19.82v2.93a2.2 2.2 0 0 1-2.2 2.2h-.78v2.2a.73.73 0 0 1-1.25.5l-2.71-2.7h-3.64l-1.26 2.52a.73.73 0 0 1-1.32 0l-1.26-2.53h-3.64l-2.71 2.72a.73.73 0 0 1-1.25-.52v-2.2h-.78a2.2 2.2 0 0 1-2.2-2.2v-2.92c0-1.21.99-2.2 2.2-2.2h20.6c1.21 0 2.2.99 2.2 2.2zm-1.46 0c0-.4-.33-.74-.74-.74h-20.6c-.4 0-.74.33-.74.74v2.93c0 .4.33.73.74.73h1.51c.4 0 .73.33.73.73v1.16l1.68-1.68a.73.73 0 0 1 .52-.21h4.4c.27 0 .53.16.65.4l.81 1.62.81-1.62c.12-.24.38-.4.65-.4h4.4c.2 0 .38.08.52.21l1.68 1.68v-1.16c0-.4.32-.73.73-.73h1.51c.4 0 .74-.33.74-.73z"/></defs><g><g transform="translate(-1369 -8747)"><use fill="#8943ca" xlink:href="#1g24a"/></g></g></svg>