<svg xmlns="http://www.w3.org/2000/svg" xmlns:xlink="http://www.w3.org/1999/xlink" width="33" height="33" viewBox="0 0 33 33"><defs><path id="mdg7a" d="M1391.15 8921.92a.4.4 0 0 0-.1.35l1.08 6.41a1.94 1.94 0 0 1-1.89 2.27c-.3 0-.6-.07-.89-.22l-5.67-3.03a.38.38 0 0 0-.36 0l-5.67 3.03c-.65.34-1.43.29-2.02-.15a1.94 1.94 0 0 1-.76-1.9l1.08-6.41a.4.4 0 0 0-.1-.35l-4.6-4.54a1.95 1.95 0 0 1 1.06-3.31l6.35-.94c.12-.02.23-.1.29-.21l2.83-5.84a1.9 1.9 0 0 1 3.43 0l2.84 5.84c.06.11.17.2.29.21l6.35.94a1.95 1.95 0 0 1 1.06 3.31zm-1.06-1.11l4.59-4.54a.38.38 0 0 0 .1-.4.38.38 0 0 0-.31-.27l-6.35-.93a1.91 1.91 0 0 1-1.44-1.06l-2.84-5.84a.37.37 0 0 0-.34-.22.37.37 0 0 0-.34.22l-2.84 5.84c-.28.57-.82.97-1.44 1.06l-6.35.93a.38.38 0 0 0-.3.27.38.38 0 0 0 .1.4l4.58 4.54c.45.45.66 1.09.55 1.72l-1.08 6.41c-.04.22.1.34.15.38.06.05.21.13.4.03l5.68-3.03a1.89 1.89 0 0 1 1.78 0l5.67 3.03c.2.1.35.02.4-.03a.38.38 0 0 0 .16-.38l-1.08-6.41c-.11-.63.1-1.27.55-1.72zm2.52-12.64l-.82 1.13a.76.76 0 0 1-1.07.17.78.78 0 0 1-.16-1.08l.8-1.14a.76.76 0 0 1 1.08-.17c.34.25.41.74.17 1.09zm-16.34 1.3a.75.75 0 0 1-1.07-.17l-.81-1.14a.78.78 0 0 1 .17-1.08.76.76 0 0 1 1.07.17l.8 1.13c.26.35.18.84-.16 1.09zm-4.96 14.93l-1.3.43a.77.77 0 0 1-.96-.5.78.78 0 0 1 .48-.97l1.31-.44a.78.78 0 0 1 .47 1.48zm12.95 8.42v1.4c0 .43-.34.78-.76.78a.77.77 0 0 1-.77-.78v-1.4c0-.43.35-.78.77-.78.42 0 .76.35.76.78zm13.7-8.48a.77.77 0 0 1-.96.5l-1.32-.44a.78.78 0 0 1-.49-.98c.13-.4.56-.63.97-.5l1.31.44c.4.13.62.57.5.98z"/></defs><g><g transform="translate(-1367 -8904)"><use fill="#8943ca" xlink:href="#mdg7a"/></g></g></svg>