<svg xmlns="http://www.w3.org/2000/svg" xmlns:xlink="http://www.w3.org/1999/xlink" width="25" height="22" viewBox="0 0 25 22"><defs><path id="htzca" d="M275.03 5617.45c.38 0 .68.31.68.69 0 .38-.3.69-.68.69a.68.68 0 0 1-.67-.69c0-.38.3-.69.67-.69zm4.36 0c.37 0 .67.31.67.69 0 .38-.3.69-.67.69a.68.68 0 0 1-.67-.69c0-.38.3-.69.67-.69zm5.62.81c0 2.3-1.14 4.39-2.98 5.89a11.13 11.13 0 0 1-7.02 2.37 12.2 12.2 0 0 1-3.43-.5l-3.22 1.91a.58.58 0 0 1-.38.08.6.6 0 0 1-.5-.69l.47-3.2a8.42 8.42 0 0 1-2.09-2.51 7.05 7.05 0 0 1-.85-3.35 7.6 7.6 0 0 1 2.98-5.89A11.13 11.13 0 0 1 275 5610c2.53-.04 5 .8 7.02 2.37a7.6 7.6 0 0 1 2.98 5.9zm-1.2 0c0-1.92-.97-3.69-2.53-4.94a9.96 9.96 0 0 0-6.28-2.1 9.96 9.96 0 0 0-6.28 2.1 6.4 6.4 0 0 0-2.53 4.94c0 .97.24 1.92.7 2.76a7.3 7.3 0 0 0 2.05 2.35c.18.13.28.35.24.58l-.34 2.3 2.35-1.41c.14-.09.32-.1.48-.06a10.4 10.4 0 0 0 3.34.52c2.26.04 4.48-.7 6.28-2.09a6.41 6.41 0 0 0 2.51-4.95zm-13.13-.8c.37 0 .67.3.67.68 0 .38-.3.69-.67.69a.68.68 0 0 1-.68-.69c0-.38.3-.69.68-.69z"/></defs><g><g transform="translate(-264 -5608)"><use fill="#8843c9" xlink:href="#htzca"/></g></g></svg>