<svg xmlns="http://www.w3.org/2000/svg" xmlns:xlink="http://www.w3.org/1999/xlink" width="20" height="22" viewBox="0 0 20 22"><defs><path id="8rr5a" d="M272.19 5676.04c-1.5-1.71-1.25-4.64-1.22-4.92.1-2.11 1.1-3.11 1.9-3.58a4.31 4.31 0 0 1 2.1-.54h.07c.79.02 1.5.2 2.1.55.8.47 1.79 1.48 1.89 3.57.02.28.27 3.21-1.23 4.92a3.58 3.58 0 0 1-2.74 1.2h-.13a3.56 3.56 0 0 1-2.74-1.2zm.78-.7c.49.55 1.15.83 2 .83h.04c.86 0 1.52-.28 2.01-.84 1.24-1.4.97-4.08.96-4.1v-.04c-.12-2.67-1.91-3.1-2.96-3.12h-.05c-.85 0-2.83.3-2.96 3.12v.03c0 .02-.27 2.71.96 4.11zm9.84 8.53a.52.52 0 0 1-.2.25c-.12.07-2.92 1.88-7.6 1.88-4.69 0-7.5-1.8-7.6-1.88a.5.5 0 0 1-.21-.25 6.1 6.1 0 0 1-.2-1.78v-.01-.1c.03-.78.08-2.6 1.77-3.18l.04-.02a11.1 11.1 0 0 0 3.23-1.48.52.52 0 0 1 .73.13c.17.24.11.57-.12.74-.07.04-1.62 1.13-3.56 1.64-.9.32-1.01 1.3-1.04 2.2v.1c0 .35.02.9.08 1.21.64.37 3.12 1.62 6.87 1.62 3.76 0 6.24-1.25 6.87-1.61.06-.32.08-.86.08-1.22v-.1c-.03-.9-.13-1.87-1.04-2.2-1.94-.5-3.49-1.6-3.56-1.64a.53.53 0 0 1-.12-.74c.16-.24.5-.3.73-.13.01.01 1.47 1.04 3.23 1.49h.04c1.7.6 1.74 2.41 1.76 3.2v.1c.01.2.02 1.26-.18 1.78z"/></defs><g><g transform="translate(-265 -5665)"><use fill="#8843c9" xlink:href="#8rr5a"/></g></g></svg>