<svg xmlns="http://www.w3.org/2000/svg" xmlns:xlink="http://www.w3.org/1999/xlink" width="33" height="34" viewBox="0 0 33 34"><defs><path id="7mmta" d="M346 8936.44v7.59h-1.5v6a3 3 0 0 1-3 2.97H318a3 3 0 0 1-3-2.98v-20.42a3 3 0 0 1 3-2.98h8.93l8-4.4a1.82 1.82 0 0 1 2.45.7l2.08 3.7h2.03a3 3 0 0 1 3 2.98v6.84zm-5.87-8.63l.89 1.59h2.26a1.8 1.8 0 0 0-1.79-1.59zm-15.77 1.59h15.28l-3.32-5.9a.61.61 0 0 0-.81-.24zm18.94 20.62v-6h-4.4a3.69 3.69 0 0 1-3.7-3.66v-.25a3.69 3.69 0 0 1 3.7-3.67h4.4v-5.85h-24.92a.6.6 0 0 1-.6-.6c0-.32.27-.59.6-.59h3.5l2.89-1.59H318c-.99 0-1.8.8-1.8 1.79v20.42c0 .99.81 1.79 1.8 1.79h23.5c.99 0 1.8-.8 1.8-1.79zm1.5-12.39h-5.9a2.5 2.5 0 0 0-2.5 2.48v.25a2.5 2.5 0 0 0 2.5 2.48h5.9zm-4.06 2.65c0 .73-.6 1.32-1.33 1.32a1.32 1.32 0 0 1 0-2.63c.74 0 1.33.59 1.33 1.31z"/></defs><g><g transform="translate(-314 -8920)"><use fill="#8943ca" xlink:href="#7mmta"/></g></g></svg>